# xmcd
#
# Track frame offsets: 
#        182
#        13275
#        25507
#        38105
#        50887
#        63682
#        75930
#        88680
#        101307
#        113645
#        126107
#        138350
#        150910
#        168247
#        179390
#        189605
#        199977
#        212045
#        221192
#        235070
#        246330
#
# Disc length: 3444 seconds
#
# Revision: 2
# Processed by: cddbd v1.4PL0 Copyright (c) Steve Scherf et al.
# Submitted via: ExactAudioCopy v0.90b3
#
DISCID=210d7215
DTITLE=Hank Williams - Vol. 1 - I Ain't Got Nothin' But Time
DYEAR=1900
DGENRE=Country
TTITLE0=Calling You
TTITLE1=Never Again
TTITLE2=Wealth Won't Save Your Soul
TTITLE3=When God Comes And Gathers His Jewels
TTITLE4=I Don't Care (If Tomorrow Never Comes)
TTITLE5=My Love For You (Has Turned To Hate)
TTITLE6=Pan American
TTITLE7=Honky Tonkin'
TTITLE8=Move It On Over
TTITLE9=I Saw The Light
TTITLE10=(Last Night) I Heard You Crying In Your Sleep
TTITLE11=Six More Miles
TTITLE12=Cool Water
TTITLE13=Swing Wide Your Gate Of Love
TTITLE14=Roly Poly
TTITLE15=Tennessee Border
TTITLE16=Old Country Church
TTITLE17=Alone And Forsaken
TTITLE18=Rock My Cradle (Once Again)
TTITLE19=Battle Of Armageddon
TTITLE20=I Ain't Got Nothin' But Time
EXTD=
EXTT0=
EXTT1=
EXTT2=
EXTT3=
EXTT4=
EXTT5=
EXTT6=
EXTT7=
EXTT8=
EXTT9=
EXTT10=
EXTT11=
EXTT12=
EXTT13=
EXTT14=
EXTT15=
EXTT16=
EXTT17=
EXTT18=
EXTT19=
EXTT20=
PLAYORDER=
